<?xml version="1.0" encoding="utf-8" ?>
<svg xmlns="http://www.w3.org/2000/svg" xmlns:xlink="http://www.w3.org/1999/xlink" width="18" height="18">
	<defs>
		<linearGradient id="gradient_0" gradientUnits="userSpaceOnUse" x1="15.832133" y1="31.242558" x2="15.919293" y2="-0.0037119526">
			<stop offset="0" stop-color="#0068E4"/>
			<stop offset="1" stop-color="#16ADFF"/>
		</linearGradient>
	</defs>
	<path fill="url(#gradient_0)" transform="scale(0.5625 0.5625)" d="M0 12.7769L-0 -0L13.0176 0L18.6879 0L32 0L32 13.1056L32 19.1461L32 32L19.7165 32L18.0419 32L12.9711 32L12.2812 32L-0 32L0 18.9473L0 12.7769ZM18.6879 0C19.7045 0.426869 20.7733 0.548086 21.756 0.939767C25.2054 2.31459 29.1139 5.23832 30.5736 8.79733L32 13.1056L32 0L18.6879 0ZM0 18.9473L-0 32L12.2812 32C11.7256 31.5535 11.0699 31.5281 10.4275 31.2808C6.24865 29.6714 2.87902 26.2938 1.10539 22.2127C0.645184 21.1538 0.473963 20.0172 0 18.9473ZM0 12.7769C0.809453 11.7723 1.08594 9.52186 1.76839 8.21541C3.1102 5.64673 6.11527 2.34592 8.9037 1.34252C10.2601 0.854409 11.7634 0.733221 13.0176 0L-0 -0L0 12.7769ZM32 19.1461C30.3987 24.2354 28.0234 28.0299 23.1653 30.5625C22.1562 31.0886 20.5141 31.3213 19.7165 32L32 32L32 19.1461Z"/>
	<path fill="#FEFEFE" transform="scale(0.5625 0.5625)" d="M12.9711 32L12.9908 21.0263L8.95297 21.0142L8.96273 16.0009L12.9792 15.9528C13.0137 13.0968 12.8189 9.77458 15.0299 7.61365C16.519 6.15832 18.3091 5.98828 20.2904 6.0154L23.0028 6.16614L23.0514 11.0083C21.5581 11.0224 19.9955 10.9435 18.5514 11.375C17.7851 12.4233 17.9964 14.7049 18.0066 15.9874L22.9988 15.9531C22.7071 17.594 22.463 19.3596 22.4596 21.0278L18.0005 21.0052L18.0419 32L12.9711 32Z"/>
</svg>
