<?xml version="1.0" encoding="utf-8" ?>
<svg xmlns="http://www.w3.org/2000/svg" xmlns:xlink="http://www.w3.org/1999/xlink" width="176" height="53">
	<path fill="#2B2A2B" d="M0 13.7771C0.52764 12.74 0.616484 11.6511 1.05871 10.5782C2.37123 7.39384 5.36824 3.02274 8.79771 1.91242C9.99116 1.52603 11.4872 1.74985 12.5825 2.3273C12.942 2.51684 13.2245 2.79283 13.4548 3.125C13.8736 9.55807 13.6685 16.1303 13.613 22.5767C13.5856 25.7543 13.8819 29.4535 13.3051 32.5684C12.9312 34.5881 12.1936 36.4302 10.8287 37.9869C10.0602 38.8633 9.23176 39.3459 8.125 39.6782L7.75427 39.375C7.88712 37.6076 8.59058 35.9469 8.71465 34.1461C8.93888 30.8917 9.35631 4.97674 8.78774 4.22432C5.67267 7.4817 4.08299 11.2619 4.18399 15.814C4.2018 16.6167 4.2195 17.4494 4.44168 18.2261C4.7314 19.2388 5.86531 20.6679 5.55984 21.625C4.96872 21.8304 4.40106 21.6025 3.86428 21.3443C2.19602 20.5419 1.00576 18.7932 0.420934 17.0881C0.287393 16.6987 0.190147 16.3225 0 15.9525L0 13.7771Z"/>
	<path fill="#2B2A2B" d="M57.0776 1.875L57.1345 1.86446C58.4898 1.66826 59.7194 2.01728 60.9569 2.56801C61.8777 3.90416 61.2866 7.27031 61.2082 8.97475C63.1155 8.98993 65.106 8.94866 66.9855 9.29886C67.5788 9.40941 67.5919 9.50166 67.9341 10C67.8605 10.6878 67.8159 11.2071 67.375 11.7681C66.2075 12.6427 62.5447 12.2021 61.023 12.1769L60.7584 26.7749C60.849 28.4794 61.073 31.0035 62.375 32.1738C62.8927 32.1443 63.3381 32.0641 63.7564 31.7381C66.4736 29.6205 66.6933 26.6273 67.081 23.4991C67.5156 19.9929 68.0212 16.3241 71.0231 14.0004C72.9896 12.4783 75.3348 12.2317 77.2993 13.9344C77.7426 14.3186 77.9938 14.9197 78.625 14.9984L79.125 13.9972C79.4354 13.8207 79.7517 13.5595 80.1095 13.5869C80.9017 13.6476 82.1675 13.8393 82.7986 14.375C84.2347 15.5942 81.5071 29.3389 83.9555 32.1617C84.4942 32.7828 84.8505 32.7049 85.625 32.7572C86.7393 32.1408 87.4449 31.1369 87.7049 29.8621C87.8956 28.9274 87.6685 27.7809 87.6437 26.8256C87.5533 23.3545 87.8631 19.6993 89.5915 16.6174C90.9328 14.2256 92.3695 13.3531 94.9105 12.6365C96.6574 13.1386 97.5781 13.5298 98.84 14.875C99.7462 14.875 99.4246 14.0202 100.162 13.7112C101.083 13.3258 102.52 13.9149 103.375 14.2785C104.058 15.3779 103.732 17.4607 103.727 18.7737L103.572 30.24L103.749 29.9894C105.806 27.0175 107.456 23.6184 108.586 20.1888C108.662 19.9577 109.071 18.902 109.031 18.7301C108.818 17.8104 107.784 17.0706 107.566 15.875C107.757 15.0647 107.949 14.1326 108.454 13.4547C109.093 12.5958 109.997 12.4218 111 12.2789C111.725 12.4341 112.117 12.5824 112.603 13.1559C112.837 13.9413 112.916 14.5575 112.846 15.375C112.91 15.475 113.04 15.7454 113.125 15.8079C113.14 15.8191 113.599 15.7517 113.668 15.742C115.266 15.5183 117.879 14.4092 119.357 15.2942C119.929 15.6369 120.397 16.3765 120.447 17.0442C120.534 18.1947 119.956 19.7326 119.714 20.8797C119.143 23.5829 118.78 27.4755 119.476 30.1601C119.704 31.038 120.054 32.0956 120.891 32.5816C121.28 32.8076 121.607 32.9412 122.06 32.8167C123.097 32.5316 123.859 31.1812 124.04 30.1949C124.236 29.1261 123.923 27.8256 123.853 26.7273C123.626 23.1934 124.229 19.3814 125.984 16.2855C127.226 14.0939 128.803 13.257 131.164 12.6059C132.835 13.1145 133.894 13.5655 135.125 14.8633C135.937 14.9203 135.811 14.0012 136.625 13.5503C137.572 13.6472 138.875 13.7247 139.595 14.4244C139.849 14.6708 139.925 14.7762 139.957 15.1314C140.284 18.7332 139.713 22.6641 139.766 26.3227C139.789 27.8964 139.766 31.3136 140.958 32.4296C141.412 32.8547 141.81 32.7999 142.375 32.7821C146.686 29.9493 145.279 21.1617 145.394 16.6035C145.424 15.4474 145.227 14.1914 146.022 13.3263C146.557 13.313 147.101 13.3055 147.631 13.3913C148.186 13.4812 148.94 13.7107 149.375 14.0844C150.04 14.6553 149.77 19.0092 149.694 19.9837C149.65 20.5564 149.414 21.2137 149.75 21.6782C151.5 19.7839 151.257 15.9285 153.053 13.875C153.417 13.4581 153.775 13.3062 154.315 13.2681C155.319 13.1972 156.485 13.6443 157.238 14.3048C158.962 15.8178 158.25 23.5491 158.39 25.8758C159.508 22.7259 160.105 19.465 161.32 16.3146C161.71 15.3036 161.99 14.1702 162.875 13.4735C163.293 13.3193 163.677 13.2248 164.122 13.3093C165.132 13.5008 167.276 14.311 167.667 15.375C167.948 16.1393 167.78 17.683 167.768 18.5C167.72 21.8882 167.371 25.6047 167.92 28.9412C168.069 29.8457 168.344 31.0591 168.875 31.8136C169.324 32.4516 169.635 32.5973 170.375 32.7307C172.189 31.4253 171.921 29.2648 173.044 27.5481L173.625 27.5189C173.849 27.8573 173.886 28.1565 173.874 28.5516C173.812 30.6192 173.502 32.9355 171.911 34.4225C170.973 35.2997 170.168 35.5512 168.884 35.5073C167.789 35.4699 166.796 34.935 166.056 34.139C162.584 30.4058 163.724 22.65 163.898 18.001C162.171 20.9233 161.071 24.7785 160.626 28.1344C160.456 29.42 160.488 32.1821 159.957 33.25C159.888 33.3883 159.617 33.5987 159.5 33.7188C158.875 33.8641 158.217 34.0286 157.595 33.7981C156.933 33.5522 156.375 33.1858 156.001 32.5755C155.46 31.6941 155.339 30.5674 155.162 29.5654C154.663 26.7302 154.472 23.7448 154.311 20.871C154.272 20.1709 154.556 19.59 154.259 18.9535L153.875 18.93C152.171 21.3812 151.226 25.4173 150.835 28.3477C150.593 30.1546 151.01 34.0413 149.975 35.375C148.865 35.7185 147.173 35.6117 146.125 35.1323C145.289 34.2011 145.771 33.7164 145.425 32.625C144.465 32.8388 143.686 34.9378 142.313 35.3838C140.961 35.8231 139.762 35.4698 138.547 34.8524C137.518 33.7801 137.103 32.7069 136.332 31.4759C135.711 32.4794 134.63 33.7031 133.661 34.3773C132.317 35.3125 130.492 35.7872 128.875 35.474C127.037 35.118 126.09 33.8515 125.103 32.4135C124.212 33.4902 123.187 34.8249 121.855 35.3366C120.939 35.6887 119.782 35.604 118.894 35.1993C114.185 33.0529 114.448 26.3519 115.098 22.094C115.228 21.2451 115.842 19.0788 115.571 18.3557C114.485 18.5198 113.51 18.4565 112.427 18.3506L112.158 18.5728C111.696 18.9541 110.586 22.3926 110.257 23.1089C109.407 24.9557 108.43 26.7551 107.331 28.4652L104.915 31.8494C104.594 32.2616 103.86 33.0698 103.728 33.5366C103.564 34.1214 103.737 35.2282 103.739 35.8885C103.747 39.4947 104.009 43.4989 102.675 46.9095C101.955 48.7533 100.56 50.5737 98.7045 51.3759C96.966 52.1276 95.1516 52.0213 93.4157 51.3295C92.136 50.8196 91.1986 49.7174 90.6635 48.4704C88.692 43.8759 94.6262 39.1134 97.4868 36.3941C98.1825 35.7329 99.2825 34.9807 99.6372 34.0707C99.8903 33.4214 99.893 33.1896 99.625 32.5716L97.1876 34.5399C95.8157 35.5312 94.27 35.7408 92.6284 35.4748C90.8047 35.1792 89.5854 33.4444 88.5792 32.0479C87.8336 33.4185 87.0125 34.8492 85.4299 35.3717C84.5751 35.654 83.1531 35.6243 82.3525 35.2195C80.6346 34.351 80.1318 32.9814 79.5622 31.2757C78.4021 32.9067 77.0514 34.6158 75.0643 35.2385C73.4929 35.7309 72.069 35.6717 70.5924 34.8953C68.6506 33.8744 68.0304 31.6976 67.431 29.7458C66.8201 30.9846 66.1385 32.3071 65.2567 33.3741C64.4606 34.3372 63.4122 35.4224 62.1099 35.542C60.9966 35.6442 59.7218 35.293 58.8575 34.569C56.8196 32.8621 56.2873 29.4726 56.0641 26.9561C55.6173 28.1438 55.1096 29.2628 54.445 30.3464C53.1058 32.53 50.9874 34.7203 48.4024 35.3278C45.673 35.9692 42.6979 35.6568 40.313 34.1767C40.2412 34.0621 39.9056 33.6025 39.9052 33.4959C39.9023 32.6081 40.2451 31.7146 40.8838 31.0813C42.442 29.5365 43.8675 32.2848 45.6043 32.2841C46.251 32.2839 46.7675 32.1215 47.2298 31.6524C47.7816 31.0924 48.0292 30.2646 48.0233 29.4968C48.0002 26.531 45.279 24.3961 43.3386 22.4919C41.1629 26.3247 38.7807 31.7386 35.2319 34.4448C34.3702 35.102 33.1678 35.6907 32.0556 35.5342C31.3872 35.4402 30.8715 34.9154 30.4848 34.3911C28.592 31.8252 29.3838 19.7344 29.9059 16.3015C25.8558 20.5814 24.236 26.0909 22.8172 31.6647C22.5589 32.6795 22.6319 34.1636 22.125 35.066C22.0508 35.1981 21.749 35.402 21.625 35.5128L20 35.5182C19.3544 35.4595 18.9599 35.2127 18.55 34.7242C17.342 33.2847 17.8762 16.0183 18.1232 13.1715C19.1014 13.2974 20.0954 13.4074 21.0423 13.6915C21.2263 13.7468 21.9527 13.9209 22.0375 14.0174C22.1477 14.1428 22.1269 15.3598 22.131 15.5626L22.1161 21.0041C22.0805 21.9946 21.8445 23.2952 22.3287 24.1956C22.8846 23.6837 23.206 21.9889 23.457 21.2436C24.299 18.7445 25.4995 15.9444 27.6153 14.2525C28.3775 13.643 29.367 13.138 30.375 13.2614C31.7564 13.4306 33.5529 14.5145 34.0455 15.8641C34.478 17.0493 34.1264 18.7938 34.0718 20.0462L33.9414 27.823C33.9724 28.8675 33.9508 30.3383 34.625 31.197L35.2804 31.0722C38.0397 28.477 39.7918 24.2086 41.6795 20.958C41.3186 20.4224 40.7766 19.7387 40.5838 19.1271C40.2989 18.2235 40.4089 16.72 40.8423 15.893C41.6173 14.4143 42.7059 13.3724 44.3356 12.8741C45.3335 12.569 45.9863 12.8591 46.875 13.3303C47.2174 13.7957 47.4217 14.026 47.4734 14.6248C47.6187 16.3101 45.9679 18.5371 44.9214 19.7745C47.1495 20.8991 49.9037 23.2254 51.3469 25.2664C52.1608 26.4175 52.5073 27.731 52.2682 29.125L52.625 29.5209L52.6472 29.4996C57.2301 25.0912 56.0296 17.8657 56.1406 12.0759C54.5899 11.6403 52.6952 12.2645 51.0729 11.8384C50.7747 11.7601 50.715 11.5071 50.5648 11.25C50.6522 10.297 50.9538 9.39974 51.2342 8.49023L56.2853 8.65457C56.3217 6.77863 56.1044 3.40548 57.0776 1.875ZM75.4011 16.375C74.5138 16.5264 73.8648 16.7092 73.3221 17.4697C71.4043 20.1572 71.082 25.2463 71.6376 28.4335C71.8741 29.7901 72.3739 31.6067 73.543 32.4153C74.0405 32.7594 74.292 32.7165 74.875 32.7281C76.6486 31.8575 77.2237 30.8558 77.8424 29.0496C78.8347 26.1531 79.3336 20.9176 77.9403 18.1041C77.6378 17.4933 77.1312 16.7493 76.4547 16.5237C76.1227 16.413 75.7489 16.3858 75.4011 16.375ZM95.8804 16.375C94.7118 16.7388 94.2118 17.2789 93.6482 18.352C91.9748 21.5388 91.6737 26.8666 92.7624 30.321C93.1186 31.4514 93.7539 32.1485 94.75 32.7565L95.8134 32.625C97.2668 31.8574 98.0094 30.7675 98.4901 29.2184C99.3687 26.3871 100.182 20.7954 98.7795 18.1376C98.3825 17.3855 97.9702 16.7452 97.125 16.4675C96.7884 16.3569 96.2298 16.3198 95.8804 16.375ZM131.993 16.375C131.049 16.5895 130.506 16.9194 129.984 17.75C128.229 20.5436 127.967 26.2274 128.713 29.4306C129.041 30.8412 129.521 31.8922 130.795 32.686C130.982 32.8023 131.736 32.6501 131.991 32.625C133.776 31.6093 134.404 30.2127 134.935 28.2756C135.679 25.5635 136.127 20.5319 134.695 18.0087C134.285 17.2865 133.846 16.6346 133 16.4284C132.687 16.3521 132.314 16.368 131.993 16.375ZM99.4037 38.125C97.2934 40.2745 93.4933 44.0954 93.5169 47.3198C93.5208 47.8515 93.7777 48.703 94.1495 49.0689L94.5076 49.375C95.2826 49.8567 95.9925 49.7892 96.875 49.7421C98.3981 48.9535 98.6932 48.0839 99.1881 46.5216C99.9737 44.0415 99.8704 40.7784 99.9294 38.1719L99.4037 38.125Z"/>
</svg>
